<?xml version="1.0" encoding="UTF-8"?>
<svg id="Layer_1" xmlns="http://www.w3.org/2000/svg" version="1.1" viewBox="0 0 1920 1080">
  <!-- Generator: Adobe Illustrator 29.8.3, SVG Export Plug-In . SVG Version: 2.1.1 Build 3)  -->
  <defs>
    <style>
      .st0 {
        fill: #162738;
      }

      .st1 {
        fill: #fff;
        fill-rule: evenodd;
      }
    </style>
  </defs>
  <rect class="st0" x="0" width="1920" height="1143.6"/>
  <path class="st1" d="M1164.29,445.83c-10.91,13.39-24.03,25.49-38.84,36.12-15.1,10.83-32,20.14-50.15,27.73-18.08,7.56-37.38,13.41-57.34,17.35-19.69,3.88-40.07,5.92-60.61,5.92s-39.26-1.93-57.93-5.61c-19.1-3.76-37.43-9.34-54.63-16.54-17.47-7.32-33.75-16.3-48.45-26.73-14.64-10.38-27.72-22.2-38.89-35.24l-1.75-2.04,3.83-3.21.94,1.1.8.94c.08.09.15.17.22.24,1.31,1.32,3.44,1.86,5.5,1.89,2.07.03,3.91-.41,4.72-1.09l.04-.04c.97-.94,1.99-3.3,2.2-5.85.15-1.77-.13-3.55-1.18-4.77l3.83-3.21c9.89,11.55,21.52,22.04,34.57,31.28,13.16,9.32,27.71,17.35,43.34,23.89,15.58,6.53,32.28,11.59,49.75,15.01,17.06,3.34,34.86,5.1,53.08,5.1s37.68-1.86,55.75-5.41c18.36-3.6,36.01-8.94,52.47-15.82,16.24-6.79,31.34-15.09,44.82-24.73,13.16-9.41,24.75-20.07,34.33-31.83l3.91,3.11c-1.25,1.54-1.71,3.36-1.52,5.15.22,1.97,1.21,3.92,2.83,5.46,5.1,4.85,10.48-1.34,10.49-1.36l3.84,3.19h0ZM1122.5,477.92c11.36-8.15,21.69-17.18,30.75-26.99-2.15-.2-4.46-1.15-6.78-3.35-2.06-1.97-3.47-4.41-4.08-6.97-8.52,9.29-18.28,17.83-29.05,25.52-13.77,9.84-29.2,18.33-45.82,25.28-16.81,7.03-34.79,12.47-53.45,16.13-18.39,3.61-37.46,5.5-56.71,5.5s-36.66-1.79-54.04-5.19c-17.77-3.48-34.8-8.65-50.73-15.32-16.02-6.71-30.9-14.91-44.32-24.41-10.82-7.66-20.7-16.18-29.47-25.46-.57,3.16-2.05,6.09-3.5,7.5-.11.11-.22.21-.32.29-1.53,1.28-4.35,2.16-7.32,2.25,9.41,9.96,20.02,19.12,31.61,27.34,14.41,10.22,30.35,19.02,47.47,26.19,16.85,7.06,34.85,12.54,53.64,16.23,18.35,3.61,37.45,5.51,56.97,5.51s40.25-2,59.62-5.82c19.69-3.88,38.66-9.63,56.38-17.04,17.77-7.43,34.32-16.56,49.14-27.19Z"/>
  <path class="st1" d="M802.62,391.61l5.53,7.05c1.1,1.4,1.86,2.49,2.27,3.26.42.77.66,1.58.72,2.41.06.83-.08,1.67-.42,2.51-.33.84-.88,1.55-1.64,2.15-.82.64-1.74,1.02-2.78,1.11-1.04.09-2.03-.1-2.97-.59.53,1.32.64,2.56.34,3.74-.31,1.17-.97,2.16-1.98,2.95-.8.63-1.72,1.05-2.78,1.27-1.05.22-2.06.19-3.01-.1-.96-.28-1.87-.87-2.71-1.74-.53-.54-1.69-1.93-3.48-4.19l-4.72-6.01,17.63-13.84h0ZM802.48,397.47l-4.08,3.2,1.83,2.33c1.09,1.39,1.78,2.23,2.09,2.54.55.56,1.14.87,1.76.95.63.07,1.22-.11,1.78-.55.55-.43.87-.93.98-1.5.1-.57-.04-1.18-.44-1.83-.22-.38-1-1.41-2.32-3.09l-1.61-2.05h0ZM795.48,402.97l-4.72,3.7,2.6,3.31c1,1.27,1.67,2.06,2.01,2.36.51.44,1.09.69,1.72.74.64.05,1.27-.18,1.89-.67.54-.42.89-.9,1.05-1.45.16-.54.14-1.13-.07-1.75-.2-.63-.95-1.75-2.22-3.37l-2.25-2.87h0ZM799.47,422.95l11.29,11.01,2.64-2.71-8.06-7.86,12.88-13.2-3.24-3.16-15.52,15.91h0ZM829.2,448.46l-3.85-3.05,1.61-5.2-7.03-5.57-4.59,2.84-3.77-2.98,20.75-12.16,3.75,2.97-6.87,23.14h0ZM828.17,436.35l2.74-8.44-7.53,4.65,4.79,3.79h0ZM848.01,449.84c-1.16,1.21-2.32,1.92-3.46,2.12-1.14.21-2.22,0-3.24-.62-1.4-.85-2.22-2.05-2.47-3.61-.24-1.55.37-3.54,1.84-5.97,1.39-2.29,2.83-3.67,4.33-4.15,1.5-.48,2.96-.29,4.38.57,1.02.62,1.73,1.44,2.1,2.45.37,1.01.37,2.08-.02,3.21l4.39,1.41c.49-1.8.56-3.37.2-4.72-.63-2.29-2.11-4.13-4.45-5.55-2.69-1.63-5.39-2.07-8.12-1.31-2.72.76-5.05,2.74-6.98,5.92-1.83,3.02-2.45,5.89-1.87,8.64.58,2.73,2.15,4.88,4.69,6.42,2.06,1.25,4.07,1.77,6.02,1.57,1.96-.2,3.85-1.17,5.7-2.92l-3.04-3.47h0ZM851.11,460.79l9.66-20.23,4.06,1.94-4.29,8.98,12.55-5.03,5.49,2.62-11.39,4.23,2.14,16.19-5.28-2.52-1.03-12.16-4.93,1.8-2.92,6.11-4.06-1.94h0ZM886.86,451.55l-4.87,13.63c-.61,1.72-1.21,2.78-1.79,3.18-.58.4-1.35.43-2.3.09-.94-.34-1.51-.96-1.7-1.9-.13-.6,0-1.52.39-2.74l-4.19-.97c-.79,2.26-.83,4.17-.13,5.73.7,1.57,2.1,2.72,4.19,3.47,1.77.63,3.33.77,4.68.41,1.36-.35,2.46-1.07,3.32-2.16.64-.83,1.27-2.11,1.9-3.86l4.78-13.37-4.26-1.52h0ZM907.78,480.54l-4.78-1.14-.73-5.4-8.73-2.08-2.96,4.52-4.67-1.11,13.68-19.78,4.65,1.11,3.53,23.88h0ZM901.73,469.99l-1.08-8.81-4.86,7.4,5.94,1.41h0ZM925.64,475.44l4.1,2.12c-1.08,2.3-2.49,3.9-4.23,4.8-1.75.9-3.8,1.15-6.18.74-2.93-.51-5.17-1.93-6.71-4.26-1.55-2.34-2.02-5.24-1.42-8.72.63-3.67,2.08-6.36,4.33-8.07,2.25-1.7,4.93-2.29,8.03-1.75,2.69.47,4.74,1.64,6.17,3.54.83,1.13,1.35,2.61,1.54,4.47l-4.6.29c-.05-1.19-.44-2.19-1.16-3-.72-.8-1.67-1.31-2.85-1.51-1.64-.28-3.07.08-4.29,1.07-1.21.99-2.05,2.81-2.51,5.44-.48,2.79-.32,4.87.47,6.23.8,1.36,2.01,2.17,3.62,2.45,1.18.2,2.25,0,3.24-.61.99-.6,1.81-1.68,2.45-3.24h0ZM932.53,484.56l1.72-22.35,4.49.35-.76,9.92,9.9-9.21,6.07.47-9.1,8.06,7.83,14.33-5.83-.45-5.35-10.97-3.95,3.46-.52,6.75-4.49-.35h0ZM963.74,486.03l-1.14-22.39,7.25-.37c2.74-.14,4.54-.12,5.39.07,1.3.28,2.4.95,3.33,2.03.92,1.08,1.43,2.51,1.52,4.29.07,1.38-.12,2.55-.57,3.52-.45.96-1.04,1.73-1.79,2.3-.74.57-1.51.96-2.28,1.17-1.07.27-2.63.45-4.67.56l-2.94.15.43,8.44-4.52.23h0ZM967.31,467.21l.32,6.35,2.47-.13c1.78-.09,2.96-.27,3.55-.53.59-.26,1.03-.66,1.35-1.17.32-.51.45-1.1.42-1.77-.04-.81-.31-1.47-.82-1.98-.5-.51-1.12-.81-1.85-.9-.55-.07-1.64-.07-3.28.01l-2.17.11h0ZM1004.57,481.97l-4.86.75-2.71-4.72-8.87,1.36-1.04,5.3-4.75.73,5.23-23.48,4.72-.73,12.27,20.8h0ZM995,474.48l-4.32-7.76-1.72,8.68,6.04-.93h0ZM1012.69,480.33l4.4-1.04-2.16-9.14,5.01-14.56-5.07,1.2-2.99,9.83-7.17-7.44-5.16,1.22,10.96,10.75,2.17,9.18h0ZM1024.02,470.18l4.08-1.71c.7,1.34,1.53,2.22,2.51,2.65.98.42,2.13.43,3.43.03,1.4-.43,2.36-1.05,2.89-1.86.52-.81.66-1.61.41-2.4-.16-.5-.44-.89-.85-1.16-.41-.26-1.03-.41-1.86-.44-.56-.02-1.8.02-3.74.13-2.5.15-4.34-.04-5.52-.58-1.69-.77-2.79-2.01-3.32-3.72-.34-1.09-.35-2.2-.02-3.34.32-1.15.99-2.15,2-3,1.01-.85,2.33-1.54,3.98-2.05,2.69-.83,4.9-.87,6.61-.11,1.72.76,2.92,2.11,3.59,4.05l-4.26,1.54c-.52-1.05-1.16-1.72-1.92-2.01-.76-.3-1.74-.25-2.95.12-1.27.39-2.17.95-2.72,1.69-.34.47-.44.97-.26,1.53.16.51.51.87,1.04,1.11.68.28,2.15.34,4.41.19,2.26-.16,3.97-.12,5.15.09,1.17.22,2.19.69,3.04,1.44.85.75,1.48,1.8,1.9,3.14.38,1.22.4,2.48.05,3.77-.35,1.28-1.06,2.38-2.15,3.29-1.08.91-2.55,1.65-4.41,2.23-2.71.84-4.98.86-6.81.05-1.84-.8-3.27-2.36-4.3-4.68h0ZM1051.71,461.92l3.61-2.13c.55.91,1.2,1.51,1.96,1.79.76.28,1.52.25,2.27-.09.81-.36,1.36-.96,1.64-1.81.28-.86.2-1.81-.27-2.87-.44-.99-1.05-1.66-1.83-2-.78-.34-1.55-.34-2.32,0-.51.23-1.07.59-1.67,1.09l-.98-3.39c1.07-.44,1.78-1.03,2.12-1.76.34-.74.33-1.52-.03-2.34-.3-.69-.75-1.15-1.35-1.37-.59-.23-1.22-.19-1.9.1-.67.29-1.14.78-1.41,1.46-.27.68-.26,1.49.04,2.43l-3.91.97c-.29-1.36-.33-2.51-.15-3.48.18-.97.63-1.86,1.35-2.69.72-.82,1.64-1.48,2.78-1.98,1.93-.85,3.75-.91,5.47-.2,1.39.59,2.36,1.52,2.92,2.78.79,1.8.45,3.67-1.04,5.62,1.28-.27,2.47-.12,3.56.44,1.1.57,1.92,1.47,2.47,2.7.79,1.8.81,3.63.05,5.47-.76,1.85-2.11,3.21-4.08,4.08-1.85.81-3.62.96-5.32.42-1.7-.53-3.03-1.61-3.98-3.25h0ZM1082.82,452.73l3.84-2.4-9.88-15.78,5.63-3.52-2.01-3.22-15.09,9.45,2.01,3.22,5.63-3.52,9.88,15.78h0ZM1087.12,436.87c-1.4-1.81-2.32-3.53-2.73-5.18-.3-1.21-.39-2.43-.24-3.69.14-1.25.49-2.38,1.06-3.38.73-1.33,1.82-2.55,3.26-3.67,2.61-2.03,5.32-2.84,8.15-2.44,2.83.4,5.36,2.04,7.61,4.93,2.22,2.85,3.18,5.69,2.88,8.5-.3,2.82-1.75,5.24-4.35,7.27-2.63,2.04-5.35,2.87-8.14,2.46-2.81-.4-5.29-2.01-7.48-4.82h0ZM1090.69,433.88c1.57,2.01,3.21,3.17,4.94,3.49,1.73.32,3.31-.09,4.74-1.2,1.42-1.1,2.18-2.52,2.3-4.26.12-1.74-.62-3.62-2.21-5.67-1.58-2.03-3.2-3.21-4.86-3.51-1.66-.31-3.23.11-4.7,1.26-1.48,1.15-2.28,2.59-2.4,4.28-.12,1.71.61,3.58,2.2,5.61h0ZM1125.49,410.62l-5.58,6.47c-.14-.42-.25-.91-.31-1.44-.08-.54-.14-1.73-.2-3.57-.06-1.83-.18-3.17-.34-4-.24-1.25-.59-2.3-1.05-3.17-.45-.87-1.06-1.64-1.82-2.29-1.34-1.16-2.88-1.64-4.61-1.46-1.73.18-3.32,1.1-4.76,2.78-1.32,1.53-2.03,3.14-2.13,4.83-.09,1.69.67,3.41,2.29,5.14l3.13-2.97c-.91-.87-1.39-1.68-1.45-2.44-.07-.76.2-1.48.79-2.16.59-.69,1.25-1.06,1.98-1.11.72-.05,1.44.23,2.17.86.66.57,1.13,1.37,1.42,2.41.21.74.36,2.43.45,5.07.12,3.28.43,5.68.91,7.18.49,1.5,1.26,2.81,2.29,3.91l9.83-11.4-3.02-2.61Z"/>
  <path class="st1" d="M781.44,410.89l2.62,3.29c.59.74.99,1.36,1.19,1.84.26.65.34,1.32.24,2.01-.1.69-.35,1.36-.76,2.01-.41.65-1.04,1.31-1.87,1.97-.74.59-1.45,1-2.12,1.24-.83.29-1.61.38-2.34.29-.56-.07-1.13-.3-1.72-.7-.44-.3-.93-.78-1.46-1.44l-2.7-3.39,8.94-7.11h0ZM781.37,413.9l-5.91,4.71,1.07,1.34c.4.5.72.84.95,1.02.31.24.63.38.95.44.33.06.74-.01,1.24-.21.5-.2,1.09-.57,1.78-1.12.69-.55,1.17-1.03,1.45-1.45.27-.42.43-.81.46-1.2.04-.38-.05-.77-.24-1.17-.14-.3-.5-.81-1.09-1.55l-.64-.81h0ZM779.78,426.95l5.95,6.31,1.4-1.32-4.37-4.64,2.26-2.13,3.93,4.17,1.39-1.31-3.93-4.17,1.84-1.74,4.22,4.48,1.41-1.33-5.8-6.16-8.31,7.83h0ZM794.44,441.87l-1.79-1.75,1.1-2.55-3.27-3.2-2.48,1.2-1.75-1.71,11.16-5.05,1.74,1.7-4.72,11.36h0ZM794.57,435.68l-2.22-2.18,4.06-1.96-1.84,4.13h0ZM795.39,442.74l6.17,5.15,1.23-1.48-4.4-3.67,6.02-7.21-1.77-1.48-7.26,8.69h0ZM802.8,449l6.98-9.04,6.7,5.17-1.18,1.53-4.87-3.76-1.55,2.01,4.54,3.5-1.17,1.52-4.54-3.5-1.9,2.46,5.04,3.89-1.18,1.52-6.87-5.3h0ZM811.25,455.46l1.88,1.34,2.77-3.88.38.27c.43.31.72.57.87.78.15.21.25.47.29.79.04.31.04,1.01,0,2.07l-.08,2.99,2.24,1.6.16-2.62c.07-1.04.07-1.79,0-2.27-.06-.47-.21-.97-.45-1.49.9.46,1.72.61,2.45.45.73-.16,1.35-.59,1.85-1.29.39-.55.6-1.13.64-1.76.04-.62-.11-1.18-.44-1.66-.33-.49-.99-1.09-1.99-1.8l-3.95-2.82-6.64,9.29h0ZM816.95,451.43l1.68-2.36,1.47,1.05c.76.54,1.21.88,1.34,1,.27.27.42.56.45.88.03.31-.07.62-.29.93-.2.28-.43.47-.69.56-.26.1-.53.1-.81.02-.28-.08-.87-.45-1.77-1.09l-1.39-.99h0ZM824.42,464.38l5.94-9.75,2.94,1.79-2.29,7.72,5.81-5.58,2.95,1.8-5.94,9.75-1.83-1.11,4.68-7.67-6.62,6.49-1.9-1.16,2.75-8.84-4.68,7.67-1.83-1.11h0ZM841.1,460.99l-2.79,5.41c-.59,1.13-.96,2.03-1.13,2.69-.11.43-.11.91,0,1.41.11.51.35,1.01.74,1.49.38.48,1.05.98,2.02,1.47.8.42,1.51.65,2.12.7.61.05,1.15-.02,1.62-.21.47-.19.9-.51,1.27-.95.37-.45.87-1.28,1.5-2.49l2.76-5.33-2.05-1.06-2.9,5.61c-.42.81-.74,1.36-.98,1.68-.23.31-.56.52-.98.6-.42.08-.92-.02-1.5-.32-.57-.3-.96-.66-1.16-1.07-.2-.42-.23-.86-.11-1.33.08-.28.35-.86.8-1.73l2.84-5.5-2.05-1.06h0ZM847.2,472.76l2.12.76c-.2.74-.19,1.36.03,1.86.23.5.65.89,1.28,1.19.67.32,1.25.42,1.73.3.47-.12.8-.38.98-.76.11-.24.14-.48.08-.73-.06-.24-.24-.51-.55-.81-.2-.2-.68-.61-1.45-1.24-.99-.81-1.61-1.51-1.87-2.12-.37-.87-.35-1.72.04-2.54.25-.52.63-.94,1.14-1.26.52-.32,1.11-.46,1.78-.44.67.03,1.4.23,2.2.6,1.3.61,2.14,1.36,2.52,2.24.38.88.37,1.8-.05,2.76l-2.13-.89c.17-.57.16-1.04-.03-1.41-.18-.37-.57-.7-1.15-.97-.61-.29-1.14-.39-1.6-.3-.29.06-.5.21-.63.48-.12.25-.11.5,0,.78.16.34.69.87,1.59,1.59.9.72,1.53,1.32,1.9,1.81.37.49.58,1.02.64,1.59.06.57-.06,1.19-.37,1.83-.28.59-.7,1.07-1.28,1.43-.57.36-1.22.53-1.94.49-.72-.03-1.53-.26-2.42-.68-1.3-.62-2.16-1.39-2.57-2.33-.41-.93-.42-2.01,0-3.24h0ZM858.17,481.81l3.76-8.71-3.1-1.34.77-1.78,8.32,3.6-.77,1.78-3.1-1.34-3.76,8.71-2.12-.92h0ZM872.79,475.28l3.96,1.41c.9.32,1.56.63,1.98.93.56.42.98.94,1.26,1.58.28.64.42,1.34.41,2.11,0,.77-.19,1.66-.55,2.66-.32.89-.7,1.62-1.14,2.18-.55.68-1.16,1.18-1.83,1.49-.51.24-1.12.34-1.83.32-.53-.02-1.2-.17-2-.45l-4.09-1.45,3.82-10.76h0ZM874.31,477.87l-2.53,7.12,1.62.57c.61.21,1.05.34,1.35.36.38.04.73,0,1.04-.13.31-.13.62-.4.94-.83.32-.43.63-1.06.92-1.9.3-.83.45-1.5.46-2,.01-.5-.07-.91-.25-1.26-.17-.35-.45-.63-.83-.86-.28-.18-.86-.42-1.75-.74l-.97-.35h0ZM879.85,489.85l2.22.63,1.29-4.58.45.13c.51.14.87.29,1.09.43.21.15.4.36.54.65.14.28.38.93.7,1.95l.94,2.84,2.65.75-.73-2.53c-.29-1-.54-1.71-.76-2.14-.22-.42-.53-.84-.93-1.25,1,.13,1.82,0,2.46-.41.63-.4,1.07-1.01,1.3-1.84.18-.65.19-1.27,0-1.87-.18-.59-.5-1.07-.98-1.42-.47-.35-1.3-.69-2.48-1.02l-4.67-1.32-3.1,10.99h0ZM883.86,484.14l.79-2.79,1.74.49c.9.25,1.43.42,1.6.49.35.17.58.39.72.67.14.28.15.61.04.98-.09.33-.25.58-.46.76-.21.18-.46.27-.75.29-.29.02-.97-.12-2.04-.42l-1.64-.46h0ZM900.92,495.47l-2.43-.6-.35-2.75-4.44-1.1-1.53,2.29-2.37-.59,7.06-10.02,2.36.58,1.7,12.18h0ZM897.88,490.07l-.51-4.49-2.51,3.75,3.02.75h0ZM903.69,496.18l-.67-11.72,2.32.42.31,8.02,3.44-7.35,2.7.48.56,8.21,3.13-7.55,2.29.41-4.75,10.75-2.41-.43-.73-8.81-3.74,8-2.45-.44h0ZM923.83,499.56l1.37-9.39-3.35-.49.28-1.91,8.97,1.31-.28,1.91-3.35-.49-1.37,9.39-2.28-.33h0ZM930.93,494.88c-.15,1.81.23,3.27,1.15,4.38.91,1.11,2.22,1.74,3.91,1.88,1.68.14,3.05-.27,4.14-1.23,1.08-.96,1.69-2.35,1.84-4.19.15-1.86-.24-3.35-1.16-4.47-.92-1.12-2.22-1.75-3.9-1.89-.93-.07-1.76.01-2.49.26-.55.18-1.07.48-1.56.91-.48.42-.87.91-1.18,1.47-.41.76-.66,1.72-.75,2.89h0ZM933.3,494.99c.11-1.31.47-2.26,1.11-2.86.63-.6,1.42-.86,2.38-.78.95.08,1.68.46,2.2,1.15.52.68.72,1.68.62,2.99-.11,1.32-.48,2.28-1.12,2.89-.65.61-1.42.88-2.33.81-.92-.07-1.65-.46-2.19-1.18-.54-.71-.76-1.72-.66-3.01h0ZM952.84,502l-2.18-.11.4-8.24c-.83.71-1.8,1.21-2.91,1.52l.1-1.98c.58-.16,1.22-.48,1.91-.97.69-.49,1.18-1.07,1.47-1.76l1.77.09-.55,11.45h0ZM963.67,493.53l-2.13.2c-.04-.44-.17-.76-.38-.98-.22-.21-.5-.32-.84-.33-.46,0-.86.19-1.19.6-.33.41-.54,1.27-.64,2.59.55-.64,1.24-.95,2.05-.94.91.01,1.69.38,2.33,1.08.64.71.95,1.61.93,2.71-.02,1.17-.38,2.1-1.07,2.79-.7.69-1.58,1.04-2.66,1.02-1.15-.02-2.09-.48-2.82-1.39-.73-.91-1.08-2.38-1.04-4.43.03-2.09.44-3.59,1.23-4.5.79-.91,1.8-1.36,3.04-1.34.87.01,1.58.27,2.14.76.56.5.91,1.21,1.05,2.13h0ZM958.64,498.22c-.01.71.14,1.26.46,1.66.32.39.69.59,1.11.6.41,0,.75-.14,1.02-.46.27-.31.41-.83.43-1.55.01-.74-.12-1.29-.41-1.63-.28-.35-.65-.53-1.08-.54-.42,0-.78.15-1.07.48-.29.33-.45.81-.46,1.44h0ZM980.18,501.5l-2.5.12-1.12-2.54-4.57.21-.81,2.63-2.44.11,3.91-11.61,2.43-.11,5.1,11.19h0ZM975.73,497.19l-1.77-4.16-1.34,4.31,3.11-.14h0ZM981.43,501.36l-.88-11.39,2.24-.17,5.25,7.24-.59-7.6,2.14-.17.88,11.39-2.31.18-5.16-7.06.58,7.42-2.14.17h0ZM991.29,489.07l4.17-.58c.94-.13,1.67-.16,2.18-.09.69.11,1.31.38,1.85.81.54.43.99.99,1.34,1.68.35.69.6,1.56.75,2.61.13.93.13,1.76,0,2.46-.17.86-.49,1.58-.94,2.16-.34.45-.83.82-1.48,1.13-.48.23-1.14.4-1.98.52l-4.29.6-1.59-11.31h0ZM993.84,490.66l1.05,7.49,1.7-.24c.64-.09,1.09-.19,1.36-.3.36-.14.65-.35.86-.6.22-.25.36-.64.45-1.17.08-.53.06-1.23-.06-2.11-.12-.87-.29-1.54-.51-1.98-.22-.45-.48-.78-.8-1-.31-.23-.69-.35-1.13-.38-.33-.03-.96.02-1.89.15l-1.02.14h0ZM1007.35,494.6l2.15-.66c.29.71.67,1.2,1.14,1.47.48.26,1.06.33,1.74.19.73-.15,1.25-.41,1.56-.8.3-.38.42-.78.33-1.2-.05-.26-.18-.47-.37-.63-.19-.15-.5-.26-.92-.32-.28-.04-.91-.08-1.9-.12-1.28-.05-2.2-.24-2.77-.57-.82-.48-1.31-1.16-1.5-2.05-.12-.57-.06-1.13.16-1.7.22-.56.61-1.04,1.16-1.42.55-.38,1.26-.66,2.12-.84,1.4-.29,2.53-.19,3.36.28.84.47,1.37,1.22,1.62,2.24l-2.24.57c-.21-.56-.5-.93-.87-1.11-.37-.19-.87-.22-1.5-.09-.66.14-1.15.37-1.46.72-.2.22-.27.47-.21.76.05.27.21.47.47.62.33.17,1.07.28,2.23.32,1.15.03,2.02.14,2.6.31.58.17,1.08.46,1.47.89.39.42.66.99.8,1.69.13.64.08,1.28-.16,1.91-.24.63-.66,1.15-1.25,1.56-.59.41-1.38.71-2.35.91-1.41.29-2.57.18-3.46-.32-.89-.5-1.54-1.36-1.95-2.59h0ZM1021.6,495.44l2.24-.53-2.19-9.23,3.29-.78-.45-1.88-8.82,2.09.45,1.88,3.29-.78,2.19,9.23h0ZM1038.52,491.1l-2.42.65-1.64-2.24-4.41,1.19-.23,2.74-2.36.64,1.31-12.18,2.35-.64,7.39,9.83h0ZM1033.24,487.85l-2.63-3.68-.38,4.49,3-.81h0ZM1039.7,490.67l2.05-.63-2.17-7.12,6.57,5.78,2.22-.68-3.33-10.92-2.05.62,2.22,7.29-6.7-5.93-2.15.65,3.33,10.92h0ZM1046.62,476.47l3.94-1.48c.89-.33,1.6-.52,2.11-.56.7-.04,1.36.09,1.98.39.63.3,1.18.75,1.68,1.35.49.59.92,1.39,1.3,2.39.33.88.51,1.69.53,2.4.02.88-.13,1.65-.44,2.32-.24.51-.63.98-1.2,1.43-.42.33-1.02.64-1.82.94l-4.06,1.53-4.02-10.69h0ZM1049.46,477.47l2.66,7.08,1.61-.6c.6-.23,1.02-.42,1.27-.59.32-.22.55-.48.71-.77.15-.3.21-.71.18-1.24-.03-.53-.21-1.22-.52-2.04-.31-.83-.62-1.44-.93-1.82-.31-.39-.64-.65-1-.8-.35-.15-.75-.19-1.19-.13-.32.04-.93.23-1.81.56l-.97.36h0ZM1062.77,476.46c-.48-1.06-.73-2.03-.74-2.89,0-.63.1-1.25.32-1.86.22-.6.53-1.12.93-1.55.52-.57,1.21-1.05,2.05-1.43,1.53-.69,2.98-.77,4.33-.24,1.35.53,2.41,1.65,3.18,3.35.76,1.68.89,3.2.41,4.56-.48,1.36-1.49,2.39-3.02,3.08-1.55.7-2.99.78-4.33.25-1.34-.53-2.38-1.63-3.13-3.28h0ZM1064.89,475.41c.53,1.18,1.21,1.95,2.03,2.32.82.36,1.65.35,2.49-.03.83-.38,1.38-.99,1.65-1.84.27-.85.12-1.87-.42-3.07-.54-1.19-1.2-1.97-1.99-2.32-.79-.35-1.61-.33-2.48.06-.87.39-1.44,1.01-1.7,1.84-.26.83-.12,1.84.42,3.04h0ZM1076.8,476.2l1.93-.95-3.29-6.67,7.41,4.64,2.08-1.02-5.04-10.25-1.92.95,3.37,6.84-7.56-4.78-2.01.99,5.04,10.25h0ZM1099.78,463.59l-2.17,1.25-2.16-1.74-3.95,2.29.49,2.71-2.12,1.23-1.87-12.11,2.11-1.22,9.68,7.59h0ZM1093.84,461.81l-3.49-2.88.79,4.44,2.69-1.56h0ZM1100.78,462.77l6.66-4.5-1.08-1.6-4.75,3.21-5.26-7.79-1.91,1.29,6.34,9.38h0ZM1108.83,457.27l-6.67-9.15,1.86-1.36,5.53,7.59,4.63-3.38,1.13,1.56-6.5,4.73h0ZM1123.96,445.43l-7.41-8.75-1.35,1.14c.26.7.3,1.46.13,2.29-.17.83-.41,1.5-.73,2.02l1.28,1.51c.6-.98.96-2.01,1.09-3.09l5.33,6.29,1.67-1.41h0ZM1120.21,436.47l-1.37-1.5,5.52-5.05,1.07,1.17c-.05.86.07,1.92.37,3.2.3,1.27.76,2.49,1.37,3.66.62,1.17,1.26,2.12,1.94,2.87l-1.56,1.42c-1.04-1.19-1.89-2.6-2.54-4.22-.65-1.62-1.03-3.26-1.14-4.91l-3.67,3.36h0ZM1125.21,428.82l1.53,1.55.76-.75c.3.33.47.64.52.95.05.31-.04.67-.25,1.09l.94.34c.22-.45.33-.88.34-1.3.01-.42-.07-.8-.25-1.13-.18-.33-.49-.73-.94-1.18l-1.1-1.11-1.56,1.54h0ZM1133.3,431.65l1.37-1.79c.65.42,1.24.59,1.78.54.54-.06,1.05-.34,1.53-.85.51-.54.78-1.06.81-1.55.03-.49-.11-.88-.42-1.17-.2-.18-.42-.28-.67-.3-.25-.01-.56.08-.93.28-.25.13-.79.46-1.62,1-1.07.7-1.93,1.07-2.59,1.13-.94.08-1.74-.19-2.41-.81-.42-.4-.71-.89-.85-1.47-.15-.59-.1-1.2.13-1.83.23-.63.64-1.27,1.24-1.91.98-1.05,1.95-1.62,2.9-1.71.96-.1,1.82.2,2.61.89l-1.5,1.76c-.49-.33-.95-.47-1.36-.4-.41.06-.83.33-1.28.8-.46.49-.72.97-.78,1.43-.04.29.05.54.27.74.2.19.44.26.74.23.37-.05,1.04-.39,2-1.03.96-.64,1.73-1.05,2.3-1.26.57-.2,1.15-.25,1.71-.13.57.12,1.11.42,1.63.91.48.45.8,1,.97,1.65.17.66.13,1.32-.12,2-.25.67-.71,1.38-1.39,2.1-.99,1.05-1.99,1.63-3,1.74-1.02.11-2.04-.22-3.08-.99Z"/>
  <path class="st1" d="M869.61,511.71l3.44-9.97,2.01.69-3.44,9.97-2.01-.69h0ZM873.55,513.1l1.89.59,2.03-6.57,2.03,7.82,2.04.63,3.12-10.08-1.89-.58-2.08,6.73-2.05-8.01-1.98-.61-3.12,10.08h0ZM884.07,512.74l2.05.34c-.06.71.05,1.27.34,1.68.29.41.74.71,1.36.87.67.18,1.2.17,1.62-.02.41-.19.67-.47.77-.85.06-.24.05-.46-.05-.67-.1-.21-.31-.42-.63-.64-.22-.15-.72-.44-1.52-.89-1.03-.57-1.72-1.11-2.05-1.62-.48-.73-.61-1.5-.39-2.31.14-.52.41-.96.83-1.34s.93-.61,1.55-.69c.62-.09,1.31-.03,2.1.18,1.28.34,2.17.88,2.66,1.62.5.74.63,1.57.41,2.51l-2.08-.45c.06-.55-.03-.97-.26-1.28-.23-.31-.63-.54-1.21-.69-.6-.16-1.1-.16-1.51,0-.25.1-.42.28-.49.54-.06.24-.02.47.13.7.2.28.77.67,1.71,1.18.94.5,1.61.95,2.03,1.33.41.38.7.83.85,1.34.15.51.14,1.09-.03,1.73-.16.58-.46,1.09-.92,1.51-.46.42-1.02.68-1.68.77-.66.09-1.43.02-2.32-.22-1.29-.35-2.2-.91-2.73-1.69-.53-.78-.71-1.76-.54-2.94h0ZM895.47,508.41l2.08.46-1.23,5.58c-.19.88-.29,1.46-.3,1.73,0,.45.14.83.41,1.16.28.33.71.56,1.29.68.59.13,1.06.11,1.41-.07.35-.17.6-.43.74-.77.14-.34.3-.91.48-1.73l1.26-5.7,2.08.46-1.2,5.41c-.27,1.24-.52,2.1-.75,2.58-.22.49-.53.87-.9,1.15-.38.29-.84.47-1.39.57-.55.09-1.24.06-2.06-.12-.98-.22-1.7-.5-2.15-.84-.46-.34-.79-.73-1.01-1.15-.21-.43-.33-.85-.33-1.26,0-.63.12-1.52.38-2.67l1.21-5.49h0ZM903.61,520.98l2.1.38.79-4.33.43.08c.48.09.83.19,1.04.3.21.12.4.3.56.55.16.24.43.82.82,1.73l1.11,2.53,2.5.46-.9-2.26c-.35-.89-.65-1.53-.89-1.9-.24-.37-.56-.73-.96-1.07.93.03,1.67-.16,2.23-.59.55-.42.89-1.02,1.04-1.8.11-.61.06-1.18-.16-1.72-.21-.53-.56-.94-1.02-1.22-.47-.28-1.26-.52-2.37-.72l-4.41-.8-1.89,10.38h0ZM906.79,515.37l.48-2.63,1.64.3c.85.15,1.35.26,1.52.31.33.12.57.31.72.56.15.25.19.55.13.89-.06.31-.17.56-.35.74-.18.18-.4.29-.67.33-.27.04-.9-.03-1.91-.21l-1.55-.28h0ZM923.5,524.14l-2.29-.32-.59-2.49-4.18-.58-1.18,2.25-2.24-.31,5.51-9.89,2.23.31,2.74,11.03h0ZM920.19,519.47l-.9-4.08-1.94,3.69,2.85.39h0ZM924.65,524.27l1-10.5,2.06.2,3.64,7.42.66-7.01,1.97.19-1,10.5-2.13-.2-3.58-7.24-.65,6.84-1.97-.19h0ZM942.18,521.76l2.03.77c-.38,1.13-.95,1.95-1.72,2.47-.77.52-1.72.74-2.85.68-1.4-.08-2.52-.63-3.36-1.63-.85-1.01-1.22-2.34-1.13-4,.1-1.75.63-3.09,1.6-4,.96-.92,2.18-1.33,3.66-1.25,1.28.07,2.31.51,3.07,1.33.45.48.77,1.15.96,2.01l-2.13.38c-.09-.55-.32-1-.7-1.34-.38-.34-.85-.52-1.41-.56-.78-.05-1.43.2-1.95.73-.51.53-.81,1.42-.88,2.68-.08,1.33.11,2.29.55,2.89.45.59,1.05.91,1.82.95.56.03,1.05-.12,1.48-.46.43-.34.76-.88.97-1.64h0ZM945.86,525.8l.23-10.55,7.81.17-.04,1.79-5.68-.12-.05,2.34,5.29.11-.04,1.77-5.29-.11-.06,2.87,5.88.13-.04,1.78-8.01-.17h0ZM959.77,525.92l-.36-10.54,3.41-.12c1.29-.04,2.14-.02,2.53.08.61.14,1.12.47,1.55.98.43.52.65,1.19.68,2.03.02.65-.08,1.2-.3,1.65-.22.45-.5.81-.86,1.07-.35.26-.72.44-1.08.53-.5.12-1.24.19-2.2.23l-1.38.05.14,3.98-2.13.07h0ZM961.6,517.09l.1,2.99,1.16-.04c.84-.03,1.4-.1,1.67-.22.28-.12.49-.3.64-.54.15-.24.22-.52.21-.83-.01-.38-.13-.7-.37-.94-.23-.24-.52-.39-.86-.44-.26-.04-.77-.05-1.54-.02l-1.02.03h0ZM979.07,524.9l-2.31.16-1.09-2.32-4.21.3-.69,2.45-2.25.16,3.35-10.81,2.24-.16,4.96,10.22h0ZM974.86,521.02l-1.73-3.8-1.14,4.01,2.87-.2h0ZM982.95,524.5l2.12-.23-.47-4.39,3.19-6.51-2.44.26-1.97,4.42-2.91-3.89-2.48.27,4.49,5.66.48,4.42h0ZM988.95,520.38l2.02-.49c.22.68.54,1.15.97,1.42.43.27.95.36,1.59.27.68-.09,1.18-.31,1.48-.65.3-.34.43-.7.38-1.08-.03-.24-.13-.45-.31-.6-.17-.15-.45-.27-.83-.34-.26-.05-.84-.13-1.75-.23-1.17-.12-2.01-.35-2.52-.69-.73-.49-1.14-1.15-1.26-1.98-.07-.53,0-1.05.24-1.55.24-.51.62-.92,1.16-1.24.53-.32,1.2-.54,2-.65,1.31-.18,2.34-.03,3.08.46.74.49,1.2,1.2,1.36,2.16l-2.1.39c-.16-.53-.41-.89-.74-1.08-.33-.2-.79-.25-1.38-.17-.62.09-1.08.28-1.39.58-.2.19-.28.42-.24.69.03.25.17.44.4.6.3.18.97.32,2.03.42,1.06.1,1.85.24,2.38.43.53.19.96.49,1.3.9.34.41.55.95.64,1.6.08.6,0,1.18-.26,1.75-.26.57-.67,1.03-1.25,1.36-.57.34-1.31.57-2.22.7-1.32.18-2.38.02-3.17-.5-.79-.51-1.34-1.34-1.64-2.5h0ZM1009.63,518.56l.35,1.85-6.96,1.32c-.06-.71.04-1.41.3-2.11.26-.7.85-1.67,1.77-2.91.74-1,1.18-1.66,1.32-2,.2-.47.26-.9.18-1.3-.08-.44-.27-.76-.55-.95-.28-.19-.63-.25-1.05-.17-.41.08-.72.27-.92.57-.2.3-.26.74-.18,1.32l-2.02.18c-.09-1.11.13-1.97.66-2.56.53-.59,1.27-.98,2.2-1.16,1.02-.19,1.87-.07,2.57.37.69.44,1.11,1.07,1.27,1.89.09.46.09.93,0,1.38-.09.45-.27.94-.54,1.47-.18.35-.53.88-1.05,1.57-.52.69-.84,1.15-.97,1.37-.13.22-.24.43-.31.62l3.95-.75h0ZM1018.06,518.61l-2.05-8.52-3.04.73-.42-1.74,8.14-1.96.42,1.74-3.04.73,2.05,8.52-2.07.5h0ZM1022.69,512.15c-.29-1.04-.38-1.95-.27-2.74.08-.58.26-1.13.55-1.65.28-.52.64-.95,1.06-1.28.55-.45,1.25-.79,2.07-1.02,1.5-.42,2.82-.29,3.98.38,1.16.67,1.97,1.84,2.44,3.5.46,1.64.38,3.04-.25,4.22-.63,1.18-1.69,1.98-3.19,2.4-1.51.42-2.84.3-3.99-.37-1.15-.67-1.95-1.81-2.4-3.43h0ZM1024.77,511.49c.32,1.16.84,1.95,1.54,2.4.7.45,1.46.55,2.28.32.81-.23,1.4-.71,1.76-1.45.36-.74.37-1.69.04-2.87-.33-1.17-.83-1.97-1.5-2.39-.67-.43-1.43-.53-2.27-.29-.85.24-1.45.72-1.81,1.44-.36.72-.37,1.67-.04,2.84h0ZM1043.9,511.13l-1.91.64-2.43-7.22c-.48.89-1.14,1.65-1.99,2.28l-.58-1.74c.45-.33.88-.83,1.31-1.48.43-.65.66-1.32.67-2.01l1.55-.52,3.38,10.04Z"/>
</svg>