<?xml version="1.0" encoding="UTF-8"?>
<svg id="Layer_1" xmlns="http://www.w3.org/2000/svg" version="1.1" viewBox="0 0 1920 1080">
  <!-- Generator: Adobe Illustrator 29.8.3, SVG Export Plug-In . SVG Version: 2.1.1 Build 3)  -->
  <defs>
    <style>
      .st0 {
        fill: #162738;
      }

      .st1 {
        fill: #e13839;
      }

      .st2, .st3 {
        fill: #fff;
      }

      .st3 {
        font-family: MislabStd-ExBold, 'Mislab Std';
        font-size: 140px;
        font-weight: 700;
      }
    </style>
  </defs>
  <g>
    <rect class="st0" x=".5" y=".5" width="1919" height="1079"/>
    <path d="M1919,1v1078H1V1h1918M1920,0H0v1080h1920V0h0Z"/>
  </g>
  <g>
    <path class="st1" d="M1441.1,383.64c4.83.09,9.76,1.27,13.72,4.13,2.92,2.17,5.29,5.06,6.8,8.36,1.23,2.65,2.51,5.44,2.48,8.43-1.49-.46-2.89-1.14-4.06-2.18-4.59-3.79-9.5-7.16-14.33-10.62-4.73-3.37-10.92-4.12-16.48-2.77-1.48.35-2.82,1.24-4.34,1.35-6.63-2.32-13.17-4.88-19.8-7.19,11.99.2,24.01.15,36.01.49h0Z"/>
    <path d="M1272.42,602.03c-2.07,4.78-4.93,10.01-3.5,15.37.95,4.15,4.48,7.28,8.46,8.49,10.47,3.56,20.74,7.65,31.23,11.15-8.46-6.83-17.31-13.18-25.83-19.95-4.98-3.57-10.13-8.55-10.37-15.06h0ZM1489.13,423.27c.05.11.15.32.2.42,8.39,6.9,17.49,12.93,25.99,19.72,1.19-3.71.04-7.96-2.76-10.64-1.66-1.84-4.01-2.7-6.28-3.5-5.69-2.06-11.37-4.18-17.15-5.99h0ZM1350.12,385.55c-17.87,49.36-35.73,98.71-53.62,148.07-5.74,16.22-11.97,32.28-17.3,48.64,1.43-2.4,3.35-4.43,5-6.67,5.75-7.36,11.24-14.91,16.91-22.32,13.76-19.08,28.17-37.69,42.13-56.62,16.87-22.78,33.93-45.43,50.57-68.39,7.85-10.32,15.27-20.98,23.32-31.16-17.06-6.56-34.38-12.51-51.52-18.9-5.99-2.39-13.49,1.27-15.5,7.35h0ZM1435.26,396.78c-4.41-.06-8.79,2.13-11.38,5.71-28.41,37.9-56.34,76.16-84.7,114.08-17.62,23.58-35.04,47.32-52.82,70.78-2.88,3.54-6.23,7.55-5.5,12.45.53,5.59,5.1,9.48,9.53,12.31,22.5,16.99,45.09,33.87,67.6,50.86,17.21,12.93,34.3,26.02,51.61,38.82,5.26,2.92,12.23.93,15.65-3.92,14.75-20.6,29.97-40.85,45.12-61.16,16.39-22.83,33.72-44.97,50.11-67.82,15.57-20.84,31-41.78,46.47-62.7,2.81-4.99,1.42-12.17-3.3-15.55-5.83-4.33-11.46-8.92-17.35-13.18-22.51-16.72-44.82-33.7-67.2-50.59-11.04-8.44-22.39-16.46-33.41-24.93-3.12-2.31-6.2-5.56-10.43-5.18h0ZM1429.23,389c5.56-1.35,11.75-.6,16.48,2.77,4.83,3.47,9.74,6.84,14.33,10.62,1.17,1.03,2.57,1.72,4.06,2.18,15.67,5.71,31.39,11.31,47.05,17.05,6.16,2.53,11.31,7.91,12.82,14.48,1.25,4.27.39,8.78-1.16,12.85,7.56,6.11,15.49,11.74,23.19,17.67,5.72,4.53,11.77,8.63,17.54,13.11,3.31,2.66,7.26,4.7,9.72,8.29,5.1,7.06,5.35,17.36-.1,24.33-39.5,53.24-78.78,106.65-118.38,159.82-7.85,10.54-15.61,21.14-23.34,31.77-6.23,8.16-19.08,10.61-27.51,4.47-21.04-15.48-41.66-31.53-62.57-47.21-1.54-1.16-3.01-2.45-4.73-3.36-3.04-2.46-6.11-4.95-9.48-6.94-3.31-.59-6.67-.92-9.96-1.64-14.5-5.04-28.91-10.34-43.32-15.63-5.42-2.01-10.18-5.98-12.43-11.38-1.27-3.16-1.87-6.6-1.69-10,.11-2.63,1.26-5.02,2.05-7.47,5.56-14.83,10.68-29.82,16.12-44.7,20.37-56.41,40.92-112.76,61.2-169.2.96-2.62,1.94-5.23,2.84-7.87,3.16-10.21,15.1-16.67,25.36-13.42,12.63,4.39,25.14,9.17,37.77,13.57,6.63,2.31,13.17,4.88,19.8,7.19,1.53-.11,2.87-1,4.34-1.35h0Z"/>
    <path class="st1" d="M1281.4,381.46c20.17.99,40.37.92,60.56,1.53-.9,2.64-1.88,5.25-2.84,7.87-17.55.47-35.09-.55-52.64-.55-2.68.03-5.36-.45-8.03-.08-5.39.97-9.8,6.07-9.73,11.59-2.17,52.07-3.31,104.16-5.18,156.24-.3,15.58-1.21,31.14-1.74,46.71-.79,2.45-1.94,4.85-2.05,7.47-.18,3.4.42,6.83,1.69,10-.41,5.3-1.15,10.61-.93,15.94.29,5.75,5.55,10.5,11.25,10.49,15.15.27,30.3.31,45.44.58,3.29.72,6.65,1.05,9.96,1.64,3.37,1.99,6.44,4.48,9.48,6.94-19.85.01-39.7-.46-59.56-.54-5.9-.12-12.4.02-17.29-3.81-5.04-3.59-7.78-9.71-7.76-15.82,1.28-26.01,1.88-52.05,2.81-78.07,2.02-53.35,3.12-106.73,5.46-160.07.54-4.81,2.98-9.3,6.34-12.73,4.06-3.45,9.34-5.85,14.76-5.33h0Z"/>
    <path d="M1364.79,404.39c4.34-1.9,8.41-4.34,12.44-6.82,1.99,7.12,5.69,13.59,8.6,20.34,2.81,5.9,3.06,14.11-2.5,18.51-3.07,2.72-8.01,2.74-11.28.37-2.3-1.44-3.77-3.78-4.99-6.13-.02-.23-.06-.68-.09-.91-1.27,3.33-1.96,7.08-.67,10.52.48,1.93,2.05,3.43,2.3,5.43-5.24-2.42-10.7-4.36-16.13-6.3,1.28-.74,2.81-.9,4.12-1.61,3.75-1.67,6.4-5.24,7.55-9.12-2.58,1.49-5.55,2.76-8.6,2.23-3.85-.31-7.33-3.3-8.13-7.09-.88-3.96.59-8.21,3.44-11.06,3.72-4.12,9.02-6.09,13.94-8.36h0Z"/>
    <path class="st1" d="M1427.57,417.96c4.34-1.11,8.99,1.35,11.13,5.15,1.39,2.45,1.58,5.37,1.18,8.12,2.96-1.71,6.76-2.44,9.96-.93,4.55,1.79,7.16,7.02,6.41,11.76-.6,3.58-2.45,7.06-5.53,9.09-2.82,2.16-6.47,2.45-9.86,2.93-7.34.64-14.74,1.82-21.46,4.98,1.34-5.93.41-12.03-.85-17.89-.9-4.32-2.01-8.79-1.16-13.22,1.27-4.8,5.08-9.25,10.18-10h0Z"/>
    <path d="M1299.25,402.48c2.13,3.2,4.3,6.44,7.35,8.85,5.17,4.7,11.6,9.43,12.82,16.8,1.38,6.46-3.83,13.85-10.71,13.51-4.03.1-6.9-2.94-9.5-5.58.35,4.76,1.54,10.5,6.23,12.82.55.11.73.56.64,1.08-5.43-.65-10.88.07-16.32.11,2.64-2.67,5.59-5.38,6.4-9.23.19-1.46,1.24-3.38.11-4.61-1.57,2.11-3.59,4.19-6.28,4.71-1.9.54-3.84.13-5.73-.14-2.44-1.17-4.67-3.03-5.62-5.64-1.78-4.46-.44-9.56,2.27-13.33,3.48-5.51,9.25-8.88,13.55-13.63,1.72-1.8,3.35-3.67,4.78-5.71h0Z"/>
    <path class="st1" d="M1403.19,479.83c10.06-2.86,21.48-.65,29.65,5.9,10.41,8.38,15.9,23.26,11.87,36.23,5.54-3.3,11.84-5.35,18.32-5.48,9,0,18.14,3.26,24.58,9.66,6.44,6.23,10.08,15.26,9.76,24.21-.29,13.42-9.21,26.22-21.68,31.16-6.43,2.62-13.37,3.54-20.19,4.54-13.72,1.75-27.36,4.11-40.82,7.29-7.34,1.89-14.74,3.69-21.78,6.56-2.4.79-4.63,1.97-7.03,2.75,1.99-14.73.68-29.7-1.56-44.32-1.57-11.36-4.36-22.53-5.68-33.93-1.14-9.49-.1-19.48,4.56-27.96,4.16-7.85,11.33-14.28,20-16.61h0Z"/>
    <path class="st1" d="M1412.67,645.32c5.62-.59,11.28-1.6,16.33-4.27-.84,6.52.48,13.04,1.88,19.38.85,3.64,1.41,7.51.28,11.16-1.38,4.4-4.9,8.46-9.6,9.27-3.84.89-8.07-.86-10.22-4.15-1.93-2.5-1.99-5.86-1.58-8.85-2.93,1.29-6.4,1.92-9.43.64-3.85-1.38-6.68-5.37-6.35-9.49.47-3.76,2.07-7.57,5.21-9.87,3.89-2.88,8.87-3.13,13.49-3.82h0Z"/>
  </g>
  <text class="st3" transform="translate(411.41 577.67)"><tspan x="0" y="0">BLACKJACK</tspan></text>
  <text/>
  <rect class="st2" x="414.35" y="609.63" width="815.63" height="9.71"/>
  <text/>
  <text/>
</svg>